<?xml version="1.0" standalone="no"?>
<svg viewBox="0 0 200 200" xmlns="http://www.w3.org/2000/svg">
  <path fill="#1F1E1A" d="M33.3,-48.1C43.2,-45.4,51.3,-36.3,61,-25C70.6,-13.7,81.6,-0.2,83.8,14.8C86,29.8,79.2,46.3,68.4,59.8C57.5,73.3,42.6,83.9,28.6,80C14.6,76.1,1.5,57.8,-15.2,52.5C-31.9,47.2,-52.1,55,-64.1,50.4C-76.1,45.8,-79.8,28.9,-74.1,15.6C-68.4,2.2,-53.3,-7.6,-43.3,-15.7C-33.2,-23.8,-28.3,-30.1,-22,-34.5C-15.6,-38.9,-7.8,-41.3,1.9,-44.3C11.7,-47.3,23.3,-50.9,33.3,-48.1Z" transform="translate(100 100)" />
</svg>
